<svg width="64" height="64" viewBox="0 0 64 64" fill="none" xmlns="http://www.w3.org/2000/svg">
  <!-- 背景圆形 -->
  <circle cx="32" cy="32" r="30" fill="#409EFF" stroke="#ffffff" stroke-width="2"/>

  <!-- AI芯片图标 -->
  <rect x="16" y="20" width="32" height="24" rx="4" fill="none" stroke="#ffffff" stroke-width="2"/>

  <!-- 芯片内部电路 -->
  <line x1="20" y1="24" x2="28" y2="24" stroke="#ffffff" stroke-width="1.5"/>
  <line x1="20" y1="28" x2="24" y2="28" stroke="#ffffff" stroke-width="1.5"/>
  <line x1="20" y1="32" x2="28" y2="32" stroke="#ffffff" stroke-width="1.5"/>
  <line x1="20" y1="36" x2="24" y2="36" stroke="#ffffff" stroke-width="1.5"/>
  <line x1="20" y1="40" x2="28" y2="40" stroke="#ffffff" stroke-width="1.5"/>

  <!-- 右侧连接点 -->
  <circle cx="36" cy="26" r="2" fill="#ffffff"/>
  <circle cx="40" cy="30" r="2" fill="#ffffff"/>
  <circle cx="36" cy="34" r="2" fill="#ffffff"/>
  <circle cx="40" cy="38" r="2" fill="#ffffff"/>

  <!-- 外部连接线 -->
  <line x1="12" y1="24" x2="16" y2="24" stroke="#ffffff" stroke-width="2"/>
  <line x1="12" y1="32" x2="16" y2="32" stroke="#ffffff" stroke-width="2"/>
  <line x1="12" y1="40" x2="16" y2="40" stroke="#ffffff" stroke-width="2"/>

  <line x1="48" y1="26" x2="52" y2="26" stroke="#ffffff" stroke-width="2"/>
  <line x1="48" y1="34" x2="52" y2="34" stroke="#ffffff" stroke-width="2"/>
  <line x1="48" y1="38" x2="52" y2="38" stroke="#ffffff" stroke-width="2"/>

  <!-- AI文字 -->
  <text x="32" y="54" text-anchor="middle" fill="#409EFF" font-size="8" font-weight="bold" font-family="Arial, sans-serif">AI</text>
</svg>
